PathFileType	4	(X/Y/Z)	C:/Users/beibeiliu/ov580/test_trc/User3\sequence.20_training_dense_right.trc
DataRate	CameraRate	NumFrames	NumMarkers	Units	OrigDataRate	OrigDataStartFrame	OrigNumFrames
120	120	16	19	mm	120	1	72
Frame#	Time	ThumbCMC			ThumbMCP			ThumbIP			ThumbTip			IndexMCP			IndexPIP			IndexTip			MiddleMCP			MiddlePIP			MiddleTip			RingMCP			RingPIP			RingTip			PinkyMCP			PinkyPIP			PinkyTip			BackHand1			BackHand2			BackHand3	
		X0	Y0	Z0	X1	Y1	Z1	X2	Y2	Z2	X3	Y3	Z3	X4	Y4	Z4	X5	Y5	Z5	X6	Y6	Z6	X7	Y7	Z7	X8	Y8	Z8	X9	Y9	Z9	X10	Y10	Z10	X11	Y11	Z11	X12	Y12	Z12	X13	Y13	Z13	X14	Y14	Z14	X15	Y15	Z15	X16	Y16	Z16	X17	Y17	Z17	X18	Y18	Z18	
0	0	102.999	-9.25582	16.9299	82.8832	-13.3452	-19.1308	91.1991	-35.9529	-43.7085	109.466	-56.9059	-40.8869	131.343	6.8137	-53.0078	126.205	13.7055	-81.5167	121.779	21.2678	-101.319	152.031	-13.6748	-58.2213	150.52	-7.13807	-85.1526	152.138	-6.15926	-116.823	153.147	-35.4757	-54.3508	153.404	-37.6405	-80.5952	151.733	-44.4881	-107.742	138.832	-62.1622	-43.3871	111.981	-70.1076	-41.5623	110.523	-61.9079	-12.7876	158.548	-32.3706	-2.33347	157.941	-33.428	29.842	140.315	-5.60849	14.8639	
1	0.00833333	85.2273	-14.1292	12.2833	68.6057	-25.4514	-14.2097	81.1662	-45.2135	-41.732	100.537	-62.797	-43.1142	103.34	4.4995	-55.1078	93.6952	11.1334	-82.3549	88.629	11.0662	-107.232	126.005	-6.67085	-60.3587	123.159	-3.29017	-92.4069	122.485	-3.21701	-122.108	135.297	-27.1316	-59.5238	139.312	-34.8966	-80.3057	133.701	-39.1163	-109.584	134.903	-54.7195	-44.806	112.71	-72.4131	-45.9504	108.725	-61.5883	-17.8793	144.234	-22.1026	-5.67488	146.358	-22.7283	25.6179	120.854	0.277252	8.99986	
2	0.0166667	72.5303	-21.2895	18.7585	59.9557	-36.6474	-13.2232	71.2977	-54.3928	-40.1145	96.3754	-64.3993	-39.7838	83.1448	-1.81758	-55.7739	70.0357	1.73941	-77.8315	64.3313	-0.0455775	-103.118	106.813	-8.19329	-67.1735	101.363	-7.10136	-93.0713	99.2783	-8.27436	-124.443	123.139	-28.2874	-60.1439	120.901	-32.6005	-81.6532	118.571	-41.6246	-109.173	127.707	-51.4161	-48.108	112.393	-73.609	-48.7548	103.491	-70.2586	-21.7691	132.723	-17.6203	-9.36386	138.949	-17.0276	19.8938	107.332	-0.623186	8.82979	
3	0.025	62.9833	-29.08	17.3161	49.9154	-47.5994	-10.4991	67.7329	-62.2029	-38.9679	94.311	-70.256	-39.9074	66.3589	-9.18102	-52.4171	52.0417	-9.55176	-79.9715	47.1157	-12.1568	-102.606	96.1971	-13.3202	-65.5088	88.9103	-13.7752	-94.2359	84.1976	-16.2619	-122.415	110.271	-28.1735	-62.143	110.063	-35.3077	-86.1235	105.54	-44.8757	-109.565	120.659	-51.3554	-47.2878	108.775	-75.0576	-49.8274	99.3184	-74.5587	-17.6459	119.474	-13.9691	-10.1397	127.032	-16.1413	21.6518	90.3782	-3.37131	5.72564	
4	0.0333333	55.3223	-37.5242	17.6265	46.4297	-57.9517	-8.75288	63.3842	-71.5827	-36.0894	92.4088	-75.1702	-36.8901	55.3506	-20.7121	-55.627	40.7948	-23.0308	-75.2285	35.1339	-28.2094	-99.5603	80.9332	-20.7952	-61.4117	74.6132	-24.6769	-93.169	68.9313	-26.7427	-119.25	100.875	-34.7243	-56.8853	97.8117	-42.0327	-85.8101	96.9242	-52.385	-110.433	116.901	-55.2387	-44.7562	102.922	-82.7116	-46.5892	97.0041	-80.6479	-16.7107	110.638	-18.1903	-7.55388	121.407	-16.1712	20.3211	85.6726	-10.8035	8.94616	
5	0.0416667	52.8642	-44.5828	17.8842	45.8262	-65.0462	-6.00737	60.3789	-79.0856	-28.836	87.5826	-81.6485	-33.699	46.9826	-31.9557	-52.6414	37.7273	-37.5065	-77.631	22.1062	-42.4678	-98.6898	76.9345	-30.8032	-62.3853	70.8616	-35.9517	-89.8796	61.3109	-41.1152	-116.728	94.2477	-41.9414	-60.1364	96.3625	-49.7665	-82.6903	90.6082	-61.4936	-105.04	113.279	-62.7435	-47.0645	102.275	-86.4484	-47.5246	95.9455	-88.122	-12.9856	108.928	-24.1147	-11.6922	113.23	-19.3332	16.6634	79.306	-16.2373	4.38814	
6	0.05	53.5756	-46.7652	19.0159	40.9943	-69.1165	-5.60579	58.2071	-84.5589	-32.5807	87.2295	-87.4065	-34.9916	45.6377	-35.9321	-53.2389	29.9651	-41.9433	-75.8262	24.6724	-48.8743	-98.6367	71.2059	-34.0476	-63.3043	65.2626	-41.0755	-89.5572	57.9615	-48.5662	-118.618	95.9089	-45.7389	-60.7883	94.7537	-54.7257	-82.7265	91.4839	-67.047	-105.07	109.653	-63.0101	-44.3215	102.481	-91.9916	-43.6508	94.704	-89.8735	-12.183	103.724	-23.8882	-9.41769	109.216	-20.03	18.3205	74.9185	-18.3345	4.81209	
7	0.0583333	51.5948	-47.088	23.5557	40.2459	-69.5116	-5.32322	56.502	-84.777	-30.672	86.9444	-86.7856	-34.9119	42.5958	-35.8866	-52.7994	31.202	-44.1483	-78.0869	20.1314	-50.1762	-99.9467	71.9427	-36.5831	-65.2353	64.1962	-43.1298	-91.0612	58.9744	-51.7625	-123.008	95.2012	-48.5638	-61.1079	94.2917	-57.5182	-83.637	87.4072	-68.1483	-104.5	109.302	-63.786	-43.4691	100.229	-90.9129	-45.9172	93.6889	-93.7188	-12.6439	101.664	-24.4908	-13.7947	109.544	-19.9586	19.7957	72.4455	-17.5008	7.91358	
8	0.0666667	53.1707	-48.2964	18.6775	39.3717	-70.5787	-4.71403	55.3278	-84.3915	-28.0076	83.6978	-89.2752	-34.2185	43.73	-37.9533	-54.2464	30.0315	-43.4667	-75.9966	22.6214	-49.7134	-95.8626	72.7053	-37.2189	-63.8127	64.5882	-45.0085	-93.0543	57.4306	-51.7104	-116.379	92.1413	-47.5899	-56.6659	90.8324	-57.4034	-80.1193	87.9896	-70.8521	-106.957	108.843	-67.1326	-44.6435	96.6784	-92.7861	-43.2024	95.0857	-94.7278	-13.5932	105.756	-26.7157	-12.352	111.777	-23.1536	16.8643	75.6577	-20.1921	8.68525	
9	0.075	50.5373	-47.8086	23.8639	39.342	-71.5956	-4.81249	53.9826	-85.6915	-28.7284	84.4371	-88.8367	-34.8524	45.8975	-37.3639	-54.5412	30.0437	-43.0448	-72.0111	20.9924	-51.0295	-97.842	69.1432	-36.6703	-65.3235	64.2978	-44.8208	-92.2932	56.5496	-51.0638	-116.777	92.8937	-48.3399	-56.4732	89.4864	-57.5975	-79.5258	86.2686	-70.4786	-104.524	110.301	-69.2238	-44.4236	97.2356	-94.3864	-42.5863	89.0176	-94.2721	-13.3296	100.825	-28.8534	-8.22563	111.15	-25.085	16.5927	77.6754	-19.2524	9.41722	
10	0.0833333	52.5087	-47.3651	20.4352	38.2735	-70.7848	-7.56275	53.5674	-87.3426	-31.5783	84.5172	-88.2943	-34.3451	45.0211	-35.3945	-50.3115	28.7647	-42.5342	-76.0084	24.8958	-48.6156	-97.0043	71.7388	-37.1361	-64.6208	67.7511	-42.9455	-89.0591	59.0082	-51.2331	-117.379	93.3457	-49.0827	-60.0226	90.4017	-57.2183	-80.4699	86.4436	-69.7837	-104.224	109.88	-69.8291	-43.8876	96.257	-93.6896	-42.8402	87.7536	-93.8146	-10.807	101.308	-28.0851	-6.44579	110.445	-22.9688	20.8375	76.1964	-21.246	10.4956	
11	0.0916667	51.0546	-47.0218	24.5649	40.6198	-66.9185	-4.44526	55.4453	-83.6356	-33.8399	84.7009	-87.1405	-37.5827	42.5615	-33.3889	-52.2328	31.3188	-39.2356	-76.7931	21.8576	-46.9877	-99.2653	69.5601	-34.0237	-61.1347	65.5022	-40.3417	-90.5586	55.5059	-47.0594	-117.748	92.1181	-45.9839	-59.4554	90.4865	-55.1388	-80.7937	83.6727	-68.2074	-106.288	103.379	-66.8608	-46.6777	94.4726	-93.7036	-44.332	88.4349	-96.8001	-15.0837	102.473	-27.5764	-11.7469	109.363	-23.4969	19.5176	71.6059	-19.5184	7.16933	
12	0.1	48.2187	-45.2033	22.9071	39.6579	-65.3107	-6.20115	51.6901	-80.7829	-30.8083	78.763	-85.3798	-39.4356	41.3087	-29.1597	-54.7074	31.9141	-35.8086	-77.3994	20.6771	-41.8847	-95.4395	67.9158	-30.9496	-66.3086	65.829	-39.2227	-93.4061	57.2365	-46.0068	-118.835	89.7438	-42.9575	-60.8324	89.8802	-52.4821	-84.9238	80.8925	-62.1307	-107.33	106.118	-62.084	-48.9588	94.3806	-86.6323	-52.9733	84.408	-98.425	-27.1822	100.999	-23.5928	-10.3554	108.639	-23.4546	18.7202	72.8712	-15.4909	10.4742	
13	0.108333	51.9687	-44.245	19.5189	39.4689	-64.7308	-7.54091	53.1199	-77.0864	-32.5768	77.1432	-84.3738	-40.4576	45.8764	-28.6742	-53.1303	33.3705	-33.6709	-77.9212	20.7217	-41.2972	-101.552	73.2433	-29.8716	-62.8475	65.5864	-35.8379	-89.7011	56.4215	-44.6752	-121.456	91.7616	-41.4401	-62.0929	84.0355	-47.1779	-82.1685	82.8261	-57.4382	-105.03	110.08	-55.229	-46.5127	98.8723	-79.1527	-62.2042	86.1732	-97.1355	-49.8375	100.872	-23.9583	-6.76717	108.727	-22.6278	17.6335	72.2961	-14.4464	10.7849	
14	0.116667	50.5203	-44.4796	20.4312	36.7068	-65.3993	-6.55873	53.3458	-76.9062	-32.436	83.4424	-81.3069	-40.6469	42.4589	-28.6619	-55.4048	32.7565	-36.0828	-79.3018	20.8974	-41.8774	-98.1795	67.7449	-31.0305	-63.2807	65.0369	-37.3791	-88.3888	53.9463	-45.6022	-119.19	92.2152	-40.7014	-59.9166	85.9209	-45.9325	-85.6867	79.5978	-55.1857	-109.509	110.859	-51.432	-44.3721	110.92	-65.949	-68.3091	94.659	-92.6192	-73.0324	103.84	-25.9606	-8.40106	107.727	-21.695	19.8317	72.6506	-17.2079	7.33052	
15	0.125	50.6566	-45.4665	22.1141	40.9073	-65.5499	-4.99265	56.3745	-78.1051	-30.7915	84.6452	-80.9987	-34.9653	42.4479	-31.9381	-52.4502	30.0133	-39.3984	-76.2739	19.7553	-44.9136	-96.1296	68.2132	-34.5156	-64.218	59.1011	-40.4314	-89.584	51.2704	-46.5691	-115.344	87.7655	-39.8525	-58.4502	90.0977	-43.9531	-80.3709	82.9648	-51.0569	-107.746	114.229	-49.4831	-42.4637	117.326	-56.5662	-66.5783	111.373	-73.1531	-87.5224	106.131	-26.1443	-6.958	112.506	-22.4596	17.4649	74.6689	-18.9063	11.7627	
